<svg xmlns="http://www.w3.org/2000/svg" xmlns:xlink="http://www.w3.org/1999/xlink" width="882" zoomAndPan="magnify" viewBox="0 0 661.5 445.499982" height="594" preserveAspectRatio="xMidYMid meet" version="1.0"><defs><g/></defs><path fill="#c90908" d="M 95.085938 116.597656 C 98.417969 123.136719 95.386719 125.382812 92.683594 127.835938 C 49.90625 166.347656 3.917969 242.105469 55.15625 291.476562 C 133.597656 371.480469 320.269531 257.941406 359.160156 391.152344 C 371.636719 366.65625 386.386719 337.71875 417.773438 337.238281 C 490.378906 328.953125 606.976562 349.132812 642.105469 267.585938 C 644.605469 254.230469 659.707031 262.765625 652.40625 273.066406 C 585.5625 409.589844 356.789062 267.964844 366.03125 431.03125 C 370.046875 443.808594 348.554688 444.589844 349.96875 431.636719 C 369.0625 225.816406 0.8125 437.570312 25.613281 218.925781 C 31.21875 192.332031 41.191406 167.710938 62.230469 148.945312 C 72.507812 137.152344 79.703125 123.515625 95.085938 116.597656 Z M 95.085938 116.597656 " fill-opacity="1" fill-rule="nonzero"/><path fill="#c90908" d="M 217.285156 64.824219 C 206.679688 50.003906 216.101562 24.699219 210.644531 6.617188 C 210.011719 3.257812 211.023438 0.226562 215.039062 -0.0234375 C 222.917969 0.910156 220.140625 12.878906 222.136719 18.5625 C 223.777344 29.773438 221.90625 41.164062 224.28125 52.425781 C 225.214844 56.996094 225.292969 63.03125 217.285156 64.824219 Z M 217.285156 64.824219 " fill-opacity="1" fill-rule="nonzero"/><path fill="#c90908" d="M 86.648438 48.160156 C 103.621094 61.011719 112.230469 81.140625 129.328125 93.816406 C 132.660156 96.140625 134.203125 99.878906 131.476562 103.085938 C 122.761719 111.46875 109.78125 84.953125 103.417969 79.777344 C 97.660156 72.65625 93.339844 64.398438 85.742188 58.738281 C 81.320312 55.480469 82.632812 51.945312 86.648438 48.160156 Z M 86.648438 48.160156 " fill-opacity="1" fill-rule="nonzero"/><path fill="#c90908" d="M 176.753906 71.214844 C 169.40625 80.710938 168.144531 81.089844 163.496094 74.296875 C 160.339844 69.675781 157.5625 64.625 155.640625 59.398438 C 152.285156 50.230469 149.101562 41.0625 143.496094 32.929688 C 141.097656 29.445312 139.253906 25.632812 145.136719 21.238281 C 161.019531 34.722656 161.222656 58.132812 176.753906 71.214844 Z M 176.753906 71.214844 " fill-opacity="1" fill-rule="nonzero"/><g fill="#c90908" fill-opacity="1"><g transform="translate(142.371382, 187.892261)"><g><path d="M 17.8125 -3.453125 C 19.226562 -3.453125 19.9375 -4.421875 19.9375 -6.359375 C 19.9375 -7.453125 19.914062 -8.945312 19.875 -10.84375 C 19.832031 -12.75 19.796875 -14.789062 19.765625 -16.96875 C 17.335938 -15.84375 15.320312 -14.5 13.71875 -12.9375 C 12.125 -11.382812 11.328125 -9.921875 11.328125 -8.546875 C 11.328125 -7.660156 11.703125 -6.820312 12.453125 -6.03125 C 13.203125 -5.238281 14.09375 -4.609375 15.125 -4.140625 C 16.15625 -3.679688 17.050781 -3.453125 17.8125 -3.453125 Z M 24.125 -25.09375 L 24.125 -23.09375 C 26.382812 -23.820312 28.644531 -24.367188 30.90625 -24.734375 C 33.175781 -25.097656 35.300781 -25.28125 37.28125 -25.28125 C 40.1875 -25.28125 42.769531 -24.78125 45.03125 -23.78125 C 47.289062 -22.789062 49.066406 -21.394531 50.359375 -19.59375 C 51.660156 -17.800781 52.3125 -15.710938 52.3125 -13.328125 C 52.3125 -9.691406 51.207031 -6.722656 49 -4.421875 C 46.800781 -2.117188 43.640625 -0.460938 39.515625 0.546875 C 38.179688 0.828125 36.878906 1.015625 35.609375 1.109375 C 34.335938 1.210938 33.175781 1.285156 32.125 1.328125 L 30.421875 -3.453125 C 31.554688 -3.453125 32.726562 -3.460938 33.9375 -3.484375 C 35.15625 -3.503906 36.328125 -3.632812 37.453125 -3.875 C 39.234375 -4.195312 40.878906 -4.742188 42.390625 -5.515625 C 43.910156 -6.285156 45.144531 -7.304688 46.09375 -8.578125 C 47.039062 -9.847656 47.515625 -11.414062 47.515625 -13.28125 C 47.515625 -14.96875 47.050781 -16.394531 46.125 -17.5625 C 45.195312 -18.738281 43.953125 -19.617188 42.390625 -20.203125 C 40.835938 -20.796875 39.113281 -21.09375 37.21875 -21.09375 C 34.988281 -21.09375 32.789062 -20.890625 30.625 -20.484375 C 28.46875 -20.078125 26.320312 -19.492188 24.1875 -18.734375 C 24.257812 -16.179688 24.316406 -13.703125 24.359375 -11.296875 C 24.398438 -8.898438 24.421875 -7.054688 24.421875 -5.765625 C 24.421875 -2.972656 23.9375 -1.050781 22.96875 0 C 22 1.050781 20.707031 1.578125 19.09375 1.578125 C 17.914062 1.578125 16.609375 1.3125 15.171875 0.78125 C 13.742188 0.257812 12.375 -0.453125 11.0625 -1.359375 C 9.75 -2.273438 8.664062 -3.335938 7.8125 -4.546875 C 6.96875 -5.753906 6.546875 -7.023438 6.546875 -8.359375 C 6.546875 -10.015625 7.160156 -11.648438 8.390625 -13.265625 C 9.628906 -14.890625 11.25 -16.414062 13.25 -17.84375 C 15.25 -19.28125 17.398438 -20.484375 19.703125 -21.453125 L 19.703125 -24.84375 C 19.703125 -26.0625 19.703125 -27.347656 19.703125 -28.703125 C 19.703125 -30.054688 19.722656 -31.398438 19.765625 -32.734375 C 18.140625 -32.609375 16.660156 -32.546875 15.328125 -32.546875 C 13.960938 -32.546875 12.640625 -32.566406 11.359375 -32.609375 C 10.085938 -32.648438 8.867188 -32.726562 7.703125 -32.84375 L 7.578125 -37.453125 C 9.234375 -37.253906 10.644531 -37.125 11.8125 -37.0625 C 12.988281 -37 14.125 -36.96875 15.21875 -36.96875 C 16.664062 -36.96875 18.195312 -37.03125 19.8125 -37.15625 C 19.851562 -38.726562 19.882812 -40.128906 19.90625 -41.359375 C 19.925781 -42.597656 19.9375 -43.476562 19.9375 -44 C 19.9375 -44.601562 19.90625 -45.328125 19.84375 -46.171875 C 19.789062 -47.023438 19.703125 -47.71875 19.578125 -48.25 L 24.84375 -48.25 C 24.726562 -47.03125 24.628906 -45.65625 24.546875 -44.125 C 24.503906 -43.394531 24.472656 -42.460938 24.453125 -41.328125 C 24.429688 -40.203125 24.398438 -38.972656 24.359375 -37.640625 C 26.546875 -37.921875 28.71875 -38.265625 30.875 -38.671875 C 33.039062 -39.078125 34.972656 -39.539062 36.671875 -40.0625 L 36.734375 -35.28125 C 34.992188 -34.875 33.019531 -34.488281 30.8125 -34.125 C 28.613281 -33.757812 26.425781 -33.457031 24.25 -33.21875 C 24.207031 -31.800781 24.175781 -30.394531 24.15625 -29 C 24.132812 -27.601562 24.125 -26.300781 24.125 -25.09375 Z M 41.390625 -37.9375 L 43.578125 -41.640625 C 44.992188 -40.910156 46.578125 -40.007812 48.328125 -38.9375 C 50.085938 -37.863281 51.773438 -36.78125 53.390625 -35.6875 C 55.015625 -34.601562 56.3125 -33.65625 57.28125 -32.84375 L 54.84375 -28.96875 C 53.875 -29.9375 52.570312 -30.976562 50.9375 -32.09375 C 49.300781 -33.207031 47.625 -34.285156 45.90625 -35.328125 C 44.1875 -36.378906 42.679688 -37.25 41.390625 -37.9375 Z M 41.390625 -37.9375 "/></g></g></g><g fill="#c90908" fill-opacity="1"><g transform="translate(202.977899, 187.892261)"><g><path d="M 49.15625 -40.546875 L 49.15625 -45.390625 L 29.21875 -45.390625 L 29.21875 -40.546875 Z M 49.15625 -32.359375 L 49.15625 -37.28125 L 29.21875 -37.28125 L 29.21875 -32.359375 Z M 53.640625 -48.796875 L 53.640625 -28.90625 L 24.84375 -28.90625 L 24.84375 -48.796875 Z M 15.328125 -50.484375 L 19.640625 -48.84375 C 18.460938 -47.15625 17.054688 -45.429688 15.421875 -43.671875 C 13.785156 -41.910156 12.054688 -40.242188 10.234375 -38.671875 C 8.421875 -37.097656 6.625 -35.703125 4.84375 -34.484375 C 4.601562 -35.015625 4.25 -35.640625 3.78125 -36.359375 C 3.320312 -37.085938 2.890625 -37.675781 2.484375 -38.125 C 4.097656 -39.175781 5.722656 -40.390625 7.359375 -41.765625 C 8.992188 -43.140625 10.507812 -44.582031 11.90625 -46.09375 C 13.300781 -47.601562 14.441406 -49.066406 15.328125 -50.484375 Z M 16.421875 -37.28125 L 20.359375 -35.703125 C 19.671875 -34.441406 18.898438 -33.1875 18.046875 -31.9375 C 17.203125 -30.6875 16.316406 -29.457031 15.390625 -28.25 L 15.390625 4.609375 L 10.96875 4.609375 L 10.96875 -23.15625 C 8.625 -20.601562 6.257812 -18.421875 3.875 -16.609375 C 3.71875 -17.054688 3.382812 -17.753906 2.875 -18.703125 C 2.375 -19.648438 1.921875 -20.382812 1.515625 -20.90625 C 3.335938 -22.238281 5.164062 -23.785156 7 -25.546875 C 8.84375 -27.304688 10.582031 -29.1875 12.21875 -31.1875 C 13.851562 -33.1875 15.253906 -35.21875 16.421875 -37.28125 Z M 24.96875 -8.84375 L 28.1875 -10.90625 C 29.59375 -9.65625 31.035156 -8.234375 32.515625 -6.640625 C 33.992188 -5.046875 35.113281 -3.660156 35.875 -2.484375 L 32.421875 -0.0625 C 31.941406 -0.863281 31.285156 -1.78125 30.453125 -2.8125 C 29.628906 -3.84375 28.738281 -4.882812 27.78125 -5.9375 C 26.832031 -6.988281 25.894531 -7.957031 24.96875 -8.84375 Z M 57.578125 -15.8125 L 57.578125 -11.9375 L 48.546875 -11.9375 L 48.546875 -0.296875 C 48.546875 0.910156 48.382812 1.835938 48.0625 2.484375 C 47.738281 3.128906 47.132812 3.632812 46.25 4 C 45.351562 4.320312 44.15625 4.523438 42.65625 4.609375 C 41.164062 4.691406 39.289062 4.734375 37.03125 4.734375 C 36.945312 4.078125 36.765625 3.375 36.484375 2.625 C 36.203125 1.882812 35.898438 1.210938 35.578125 0.609375 C 37.273438 0.648438 38.8125 0.679688 40.1875 0.703125 C 41.5625 0.722656 42.445312 0.710938 42.84375 0.671875 C 43.332031 0.628906 43.65625 0.535156 43.8125 0.390625 C 43.976562 0.253906 44.0625 -0.015625 44.0625 -0.421875 L 44.0625 -11.9375 L 19.765625 -11.9375 L 19.765625 -15.8125 L 44.0625 -15.8125 L 44.0625 -20.96875 L 21.15625 -20.96875 L 21.15625 -24.84375 L 56.484375 -24.84375 L 56.484375 -20.96875 L 48.546875 -20.96875 L 48.546875 -15.8125 Z M 57.578125 -15.8125 "/></g></g></g><g fill="#c90908" fill-opacity="1"><g transform="translate(263.584415, 187.892261)"><g><path d="M 10.84375 -45.875 L 16.296875 -45.453125 C 16.140625 -44.929688 15.9375 -44.265625 15.6875 -43.453125 C 15.445312 -42.648438 15.269531 -41.960938 15.15625 -41.390625 C 14.875 -40.015625 14.5625 -38.367188 14.21875 -36.453125 C 13.875 -34.535156 13.546875 -32.503906 13.234375 -30.359375 C 12.929688 -28.222656 12.691406 -26.125 12.515625 -24.0625 C 12.335938 -22 12.25 -20.117188 12.25 -18.421875 C 12.25 -16.972656 12.285156 -15.597656 12.359375 -14.296875 C 12.441406 -13.003906 12.566406 -11.632812 12.734375 -10.1875 C 13.253906 -11.5625 13.816406 -13.046875 14.421875 -14.640625 C 15.023438 -16.234375 15.570312 -17.613281 16.0625 -18.78125 L 18.671875 -16.84375 C 18.179688 -15.4375 17.632812 -13.863281 17.03125 -12.125 C 16.425781 -10.382812 15.890625 -8.734375 15.421875 -7.171875 C 14.960938 -5.617188 14.628906 -4.359375 14.421875 -3.390625 C 14.222656 -2.460938 14.125 -1.578125 14.125 -0.734375 L 14.296875 1.390625 L 9.9375 1.703125 C 9.332031 -0.441406 8.816406 -3.179688 8.390625 -6.515625 C 7.972656 -9.847656 7.765625 -13.535156 7.765625 -17.578125 C 7.765625 -20.523438 7.929688 -23.546875 8.265625 -26.640625 C 8.609375 -29.734375 8.992188 -32.601562 9.421875 -35.25 C 9.847656 -37.894531 10.179688 -40.023438 10.421875 -41.640625 C 10.503906 -42.328125 10.59375 -43.039062 10.6875 -43.78125 C 10.789062 -44.53125 10.84375 -45.226562 10.84375 -45.875 Z M 25.640625 -16.78125 L 30 -16.359375 C 29.476562 -14.265625 29.21875 -12.425781 29.21875 -10.84375 C 29.21875 -9.957031 29.476562 -9.097656 30 -8.265625 C 30.53125 -7.441406 31.519531 -6.765625 32.96875 -6.234375 C 34.425781 -5.710938 36.53125 -5.453125 39.28125 -5.453125 C 44.488281 -5.453125 49.4375 -5.976562 54.125 -7.03125 L 54.1875 -1.9375 C 52.320312 -1.570312 50.132812 -1.28125 47.625 -1.0625 C 45.125 -0.84375 42.320312 -0.734375 39.21875 -0.734375 C 34.207031 -0.734375 30.53125 -1.519531 28.1875 -3.09375 C 25.84375 -4.664062 24.671875 -6.867188 24.671875 -9.703125 C 24.671875 -10.785156 24.757812 -11.921875 24.9375 -13.109375 C 25.125 -14.304688 25.359375 -15.53125 25.640625 -16.78125 Z M 27.703125 -35.875 L 27.640625 -40.84375 C 29.296875 -40.5625 31.210938 -40.367188 33.390625 -40.265625 C 35.578125 -40.171875 37.84375 -40.125 40.1875 -40.125 C 42.53125 -40.125 44.757812 -40.191406 46.875 -40.328125 C 49 -40.472656 50.8125 -40.644531 52.3125 -40.84375 L 52.3125 -35.875 C 50.6875 -35.71875 48.8125 -35.597656 46.6875 -35.515625 C 44.570312 -35.429688 42.363281 -35.390625 40.0625 -35.390625 C 37.757812 -35.390625 35.535156 -35.429688 33.390625 -35.515625 C 31.253906 -35.597656 29.359375 -35.71875 27.703125 -35.875 Z M 27.703125 -35.875 "/></g></g></g><g fill="#c90908" fill-opacity="1"><g transform="translate(324.190931, 187.892261)"><g><path d="M 47.21875 -48.609375 C 47.738281 -47.921875 48.300781 -47.082031 48.90625 -46.09375 C 49.519531 -45.101562 50.117188 -44.09375 50.703125 -43.0625 C 51.285156 -42.03125 51.78125 -41.113281 52.1875 -40.3125 L 48.90625 -38.796875 C 48.300781 -40.046875 47.535156 -41.488281 46.609375 -43.125 C 45.679688 -44.757812 44.789062 -46.144531 43.9375 -47.28125 Z M 53.875 -51.09375 C 54.445312 -50.363281 55.046875 -49.492188 55.671875 -48.484375 C 56.296875 -47.472656 56.910156 -46.460938 57.515625 -45.453125 C 58.117188 -44.441406 58.625 -43.554688 59.03125 -42.796875 L 55.703125 -41.328125 C 55.054688 -42.628906 54.273438 -44.066406 53.359375 -45.640625 C 52.453125 -47.210938 51.554688 -48.566406 50.671875 -49.703125 Z M 13.28125 -36.84375 L 13.28125 -41.828125 C 15.457031 -41.535156 17.898438 -41.328125 20.609375 -41.203125 C 23.316406 -41.085938 26.164062 -41.03125 29.15625 -41.03125 C 32.019531 -41.03125 34.894531 -41.117188 37.78125 -41.296875 C 40.675781 -41.484375 43.191406 -41.675781 45.328125 -41.875 L 45.328125 -36.90625 C 43.992188 -36.832031 42.414062 -36.734375 40.59375 -36.609375 C 38.78125 -36.484375 36.882812 -36.378906 34.90625 -36.296875 C 32.925781 -36.222656 31.007812 -36.1875 29.15625 -36.1875 C 26.164062 -36.1875 23.363281 -36.242188 20.75 -36.359375 C 18.144531 -36.484375 15.65625 -36.644531 13.28125 -36.84375 Z M 10.84375 -18.0625 L 15.765625 -17.578125 C 15.398438 -16.398438 15.101562 -15.253906 14.875 -14.140625 C 14.65625 -13.035156 14.546875 -11.914062 14.546875 -10.78125 C 14.546875 -8.519531 15.71875 -6.671875 18.0625 -5.234375 C 20.40625 -3.804688 23.960938 -3.09375 28.734375 -3.09375 C 32.890625 -3.09375 36.785156 -3.300781 40.421875 -3.71875 C 44.054688 -4.144531 47.007812 -4.703125 49.28125 -5.390625 L 49.34375 -0.25 C 47.195312 0.363281 44.316406 0.867188 40.703125 1.265625 C 37.085938 1.671875 33.132812 1.875 28.84375 1.875 C 22.75 1.875 18.015625 0.882812 14.640625 -1.09375 C 11.265625 -3.070312 9.578125 -5.941406 9.578125 -9.703125 C 9.578125 -11.273438 9.71875 -12.757812 10 -14.15625 C 10.28125 -15.550781 10.5625 -16.851562 10.84375 -18.0625 Z M 10.84375 -18.0625 "/></g></g></g><g fill="#c90908" fill-opacity="1"><g transform="translate(384.797448, 187.892261)"><g><path d="M 18.1875 -36.96875 L 18.1875 -44.671875 L 9.15625 -44.671875 L 9.15625 -36.96875 Z M 18.1875 -25.703125 L 18.1875 -33.453125 L 9.15625 -33.453125 L 9.15625 -25.703125 Z M 18.1875 -14.25 L 18.1875 -22.125 L 9.15625 -22.125 L 9.15625 -14.25 Z M 22.25 -48.421875 L 22.25 -10.546875 L 5.21875 -10.546875 L 5.21875 -48.421875 Z M 8.1875 -9.265625 L 12.25 -8.359375 C 11.5625 -5.898438 10.609375 -3.515625 9.390625 -1.203125 C 8.179688 1.097656 6.890625 3.054688 5.515625 4.671875 C 5.148438 4.347656 4.613281 3.929688 3.90625 3.421875 C 3.195312 2.921875 2.601562 2.53125 2.125 2.25 C 3.539062 0.832031 4.757812 -0.894531 5.78125 -2.9375 C 6.8125 -4.976562 7.613281 -7.085938 8.1875 -9.265625 Z M 15.765625 -7.8125 L 19.15625 -9.328125 C 20.164062 -7.878906 21.132812 -6.285156 22.0625 -4.546875 C 22.988281 -2.804688 23.695312 -1.289062 24.1875 0 L 20.609375 1.703125 C 20.203125 0.398438 19.523438 -1.144531 18.578125 -2.9375 C 17.628906 -4.738281 16.691406 -6.363281 15.765625 -7.8125 Z M 42.484375 -8.78125 L 50.25 -8.78125 L 50.25 -13.328125 L 42.484375 -13.328125 Z M 31.09375 -13.328125 L 31.09375 -8.78125 L 38.484375 -8.78125 L 38.484375 -13.328125 Z M 38.484375 -20.78125 L 31.09375 -20.78125 L 31.09375 -16.484375 L 38.484375 -16.484375 Z M 50.25 -20.78125 L 42.484375 -20.78125 L 42.484375 -16.484375 L 50.25 -16.484375 Z M 36.0625 -35.09375 L 36.0625 -31.09375 L 45.03125 -31.09375 L 45.03125 -35.09375 Z M 36.0625 -42.0625 L 36.0625 -38.421875 L 45.03125 -38.421875 L 45.03125 -42.0625 Z M 58 -8.78125 L 58 -5.328125 L 54.359375 -5.328125 L 54.359375 -0.0625 C 54.359375 1.03125 54.21875 1.890625 53.9375 2.515625 C 53.65625 3.140625 53.128906 3.613281 52.359375 3.9375 C 51.515625 4.21875 50.382812 4.390625 48.96875 4.453125 C 47.550781 4.515625 45.753906 4.546875 43.578125 4.546875 C 43.492188 4.015625 43.332031 3.40625 43.09375 2.71875 C 42.851562 2.039062 42.59375 1.4375 42.3125 0.90625 C 43.882812 0.945312 45.328125 0.96875 46.640625 0.96875 C 47.953125 0.96875 48.8125 0.96875 49.21875 0.96875 C 49.582031 0.925781 49.84375 0.84375 50 0.71875 C 50.164062 0.601562 50.25 0.34375 50.25 -0.0625 L 50.25 -5.328125 L 31.09375 -5.328125 L 31.09375 4.671875 L 27.03125 4.671875 L 27.03125 -5.328125 L 23.09375 -5.328125 L 23.09375 -8.78125 L 27.03125 -8.78125 L 27.03125 -24.1875 L 38.484375 -24.1875 L 38.484375 -27.703125 L 23.328125 -27.703125 L 23.328125 -31.09375 L 32.0625 -31.09375 L 32.0625 -35.09375 L 26.296875 -35.09375 L 26.296875 -38.421875 L 32.0625 -38.421875 L 32.0625 -42.0625 L 24.734375 -42.0625 L 24.734375 -45.453125 L 32.0625 -45.453125 L 32.0625 -50.671875 L 36.0625 -50.671875 L 36.0625 -45.453125 L 45.03125 -45.453125 L 45.03125 -50.671875 L 49.09375 -50.671875 L 49.09375 -45.453125 L 56.484375 -45.453125 L 56.484375 -42.0625 L 49.09375 -42.0625 L 49.09375 -38.421875 L 55.515625 -38.421875 L 55.515625 -35.09375 L 49.09375 -35.09375 L 49.09375 -31.09375 L 57.765625 -31.09375 L 57.765625 -27.703125 L 42.484375 -27.703125 L 42.484375 -24.1875 L 54.359375 -24.1875 L 54.359375 -8.78125 Z M 58 -8.78125 "/></g></g></g><g fill="#c90908" fill-opacity="1"><g transform="translate(445.403964, 187.892261)"><g><path d="M 13.9375 -47.03125 L 33.21875 -47.03125 C 33.21875 -44.894531 33.335938 -42.328125 33.578125 -39.328125 C 33.816406 -36.335938 34.367188 -33.113281 35.234375 -29.65625 C 36.109375 -26.207031 37.441406 -22.695312 39.234375 -19.125 C 41.035156 -15.550781 43.484375 -12.066406 46.578125 -8.671875 C 49.671875 -5.273438 53.597656 -2.160156 58.359375 0.671875 C 57.835938 1.035156 57.203125 1.609375 56.453125 2.390625 C 55.710938 3.179688 55.140625 3.859375 54.734375 4.421875 C 49.765625 1.390625 45.671875 -2.007812 42.453125 -5.78125 C 39.242188 -9.5625 36.707031 -13.484375 34.84375 -17.546875 C 32.988281 -21.609375 31.597656 -25.535156 30.671875 -29.328125 C 28.441406 -21.492188 25.359375 -14.785156 21.421875 -9.203125 C 17.484375 -3.628906 12.503906 0.929688 6.484375 4.484375 C 6.078125 4.035156 5.445312 3.425781 4.59375 2.65625 C 3.75 1.894531 3.023438 1.3125 2.421875 0.90625 C 9.128906 -2.5625 14.429688 -7.328125 18.328125 -13.390625 C 22.234375 -19.453125 25.113281 -26.726562 26.96875 -35.21875 L 29.640625 -34.796875 C 29.429688 -36.203125 29.265625 -37.5625 29.140625 -38.875 C 29.023438 -40.1875 28.925781 -41.410156 28.84375 -42.546875 L 13.9375 -42.546875 Z M 13.9375 -47.03125 "/></g></g></g><g fill="#c90908" fill-opacity="1"><g transform="translate(506.01048, 187.892261)"><g><path d="M 28.296875 -14.671875 L 26.84375 -38.1875 L 26.671875 -45.328125 L 33.9375 -45.328125 L 33.8125 -38.1875 L 32.3125 -14.671875 Z M 30.296875 0.296875 C 28.960938 0.296875 27.820312 -0.125 26.875 -0.96875 C 25.925781 -1.820312 25.453125 -2.992188 25.453125 -4.484375 C 25.453125 -5.898438 25.925781 -7.039062 26.875 -7.90625 C 27.820312 -8.78125 28.960938 -9.21875 30.296875 -9.21875 C 31.640625 -9.21875 32.785156 -8.78125 33.734375 -7.90625 C 34.679688 -7.039062 35.15625 -5.898438 35.15625 -4.484375 C 35.15625 -2.992188 34.679688 -1.820312 33.734375 -0.96875 C 32.785156 -0.125 31.640625 0.296875 30.296875 0.296875 Z M 30.296875 0.296875 "/></g></g></g><g fill="#c90908" fill-opacity="1"><g transform="translate(128.875117, 287.04893)"><g><path d="M 60.375 -51.890625 L 68.09375 -47.109375 C 67.695312 -46.410156 67.253906 -45.566406 66.765625 -44.578125 C 66.285156 -43.597656 65.894531 -42.625 65.59375 -41.65625 C 64.9375 -39.4375 64.003906 -36.898438 62.796875 -34.046875 C 61.585938 -31.191406 60.125 -28.238281 58.40625 -25.1875 C 56.6875 -22.132812 54.691406 -19.191406 52.421875 -16.359375 C 48.835938 -11.960938 44.617188 -8.007812 39.765625 -4.5 C 34.921875 -1 28.9375 2.164062 21.8125 5 L 12.875 -3.03125 C 18.082031 -4.59375 22.550781 -6.347656 26.28125 -8.296875 C 30.019531 -10.242188 33.265625 -12.351562 36.015625 -14.625 C 38.765625 -16.894531 41.226562 -19.265625 43.40625 -21.734375 C 45.125 -23.703125 46.726562 -25.9375 48.21875 -28.4375 C 49.707031 -30.9375 50.96875 -33.425781 52 -35.90625 C 53.039062 -38.382812 53.757812 -40.554688 54.15625 -42.421875 L 32.875 -42.421875 C 30.351562 -39.140625 27.472656 -35.894531 24.234375 -32.6875 C 21.003906 -29.476562 17.519531 -26.613281 13.78125 -24.09375 L 5.296875 -30.375 C 9.742188 -33.101562 13.484375 -35.929688 16.515625 -38.859375 C 19.546875 -41.785156 22.054688 -44.625 24.046875 -47.375 C 26.046875 -50.132812 27.675781 -52.597656 28.9375 -54.765625 C 29.488281 -55.722656 30.101562 -56.972656 30.78125 -58.515625 C 31.46875 -60.054688 31.988281 -61.457031 32.34375 -62.71875 L 43.40625 -59.078125 C 42.5 -57.765625 41.613281 -56.363281 40.75 -54.875 C 39.894531 -53.382812 39.238281 -52.210938 38.78125 -51.359375 L 38.5625 -50.984375 L 53.78125 -50.984375 C 54.945312 -50.984375 56.117188 -51.070312 57.296875 -51.25 C 58.484375 -51.425781 59.507812 -51.640625 60.375 -51.890625 Z M 60.375 -51.890625 "/></g></g></g><g fill="#c90908" fill-opacity="1"><g transform="translate(204.626474, 287.04893)"><g><path d="M 6.96875 -23.171875 L 6.96875 -35.078125 C 7.875 -35.023438 9.035156 -34.957031 10.453125 -34.875 C 11.867188 -34.800781 13.34375 -34.738281 14.875 -34.6875 C 16.414062 -34.644531 17.847656 -34.625 19.171875 -34.625 L 59.84375 -34.625 C 61.613281 -34.625 63.289062 -34.6875 64.875 -34.8125 C 66.46875 -34.9375 67.742188 -35.023438 68.703125 -35.078125 L 68.703125 -23.171875 C 67.796875 -23.222656 66.492188 -23.300781 64.796875 -23.40625 C 63.109375 -23.507812 61.457031 -23.5625 59.84375 -23.5625 L 19.171875 -23.5625 C 16.992188 -23.5625 14.769531 -23.519531 12.5 -23.4375 C 10.226562 -23.363281 8.382812 -23.273438 6.96875 -23.171875 Z M 6.96875 -23.171875 "/></g></g></g><g fill="#c90908" fill-opacity="1"><g transform="translate(280.377832, 287.04893)"><g><path d="M 62.875 -60.90625 C 61.707031 -60.90625 60.71875 -60.515625 59.90625 -59.734375 C 59.101562 -58.953125 58.703125 -57.976562 58.703125 -56.8125 C 58.703125 -55.695312 59.101562 -54.722656 59.90625 -53.890625 C 60.71875 -53.054688 61.707031 -52.640625 62.875 -52.640625 C 64.03125 -52.640625 65 -53.054688 65.78125 -53.890625 C 66.570312 -54.722656 66.96875 -55.695312 66.96875 -56.8125 C 66.96875 -57.976562 66.570312 -58.953125 65.78125 -59.734375 C 65 -60.515625 64.03125 -60.90625 62.875 -60.90625 Z M 62.875 -48.03125 C 61.257812 -48.03125 59.78125 -48.421875 58.4375 -49.203125 C 57.101562 -49.984375 56.039062 -51.039062 55.25 -52.375 C 54.46875 -53.71875 54.078125 -55.195312 54.078125 -56.8125 C 54.078125 -58.425781 54.46875 -59.890625 55.25 -61.203125 C 56.039062 -62.515625 57.101562 -63.5625 58.4375 -64.34375 C 59.78125 -65.132812 61.257812 -65.53125 62.875 -65.53125 C 65.300781 -65.53125 67.359375 -64.679688 69.046875 -62.984375 C 70.734375 -61.296875 71.578125 -59.238281 71.578125 -56.8125 C 71.578125 -55.195312 71.1875 -53.71875 70.40625 -52.375 C 69.625 -51.039062 68.578125 -49.984375 67.265625 -49.203125 C 65.953125 -48.421875 64.488281 -48.03125 62.875 -48.03125 Z M 17.265625 -31.203125 L 25.828125 -27.1875 C 24.972656 -25.519531 23.925781 -23.6875 22.6875 -21.6875 C 21.445312 -19.695312 20.144531 -17.71875 18.78125 -15.75 C 17.414062 -13.78125 16.078125 -11.945312 14.765625 -10.25 C 13.453125 -8.5625 12.269531 -7.164062 11.21875 -6.0625 L 3.03125 -11.671875 C 4.75 -13.285156 6.503906 -15.210938 8.296875 -17.453125 C 10.085938 -19.703125 11.773438 -22.023438 13.359375 -24.421875 C 14.953125 -26.828125 16.253906 -29.085938 17.265625 -31.203125 Z M 60.671875 -37.953125 L 42.953125 -37.953125 L 42.953125 -2.734375 C 42.953125 -0.554688 42.304688 1.171875 41.015625 2.453125 C 39.734375 3.742188 37.753906 4.390625 35.078125 4.390625 C 33.054688 4.390625 30.972656 4.328125 28.828125 4.203125 C 26.679688 4.078125 24.644531 3.914062 22.71875 3.71875 L 21.8125 -5.6875 C 23.425781 -5.382812 25.003906 -5.15625 26.546875 -5 C 28.085938 -4.84375 29.3125 -4.765625 30.21875 -4.765625 C 31.226562 -4.765625 31.9375 -4.976562 32.34375 -5.40625 C 32.75 -5.84375 32.976562 -6.539062 33.03125 -7.5 C 33.03125 -7.957031 33.039062 -8.929688 33.0625 -10.421875 C 33.09375 -11.910156 33.109375 -13.703125 33.109375 -15.796875 C 33.109375 -17.890625 33.109375 -20.082031 33.109375 -22.375 C 33.109375 -24.675781 33.109375 -26.898438 33.109375 -29.046875 C 33.109375 -31.191406 33.109375 -33.046875 33.109375 -34.609375 C 33.109375 -36.179688 33.109375 -37.269531 33.109375 -37.875 L 33.109375 -37.953125 L 13.859375 -37.953125 C 12.753906 -37.953125 11.519531 -37.925781 10.15625 -37.875 C 8.789062 -37.820312 7.578125 -37.742188 6.515625 -37.640625 L 6.515625 -47.71875 C 7.671875 -47.570312 8.894531 -47.429688 10.1875 -47.296875 C 11.476562 -47.171875 12.703125 -47.109375 13.859375 -47.109375 L 33.109375 -47.109375 L 33.109375 -53.171875 C 33.109375 -54.179688 33.03125 -55.367188 32.875 -56.734375 C 32.71875 -58.097656 32.566406 -59.109375 32.421875 -59.765625 L 43.625 -59.765625 C 43.582031 -59.410156 43.507812 -58.828125 43.40625 -58.015625 C 43.300781 -57.210938 43.195312 -56.367188 43.09375 -55.484375 C 43 -54.597656 42.953125 -53.828125 42.953125 -53.171875 L 42.953125 -47.109375 L 60.59375 -47.109375 C 61.65625 -47.109375 62.914062 -47.160156 64.375 -47.265625 C 65.84375 -47.367188 67.0625 -47.492188 68.03125 -47.640625 L 68.03125 -37.71875 C 66.863281 -37.820312 65.597656 -37.882812 64.234375 -37.90625 C 62.867188 -37.9375 61.679688 -37.953125 60.671875 -37.953125 Z M 50.140625 -26.96875 L 58.40625 -31.4375 C 59.363281 -30.226562 60.4375 -28.773438 61.625 -27.078125 C 62.8125 -25.390625 64.007812 -23.609375 65.21875 -21.734375 C 66.425781 -19.867188 67.5625 -18.039062 68.625 -16.25 C 69.6875 -14.457031 70.597656 -12.878906 71.359375 -11.515625 L 62.421875 -6.671875 C 61.359375 -8.835938 60.09375 -11.195312 58.625 -13.75 C 57.164062 -16.300781 55.691406 -18.757812 54.203125 -21.125 C 52.710938 -23.5 51.359375 -25.445312 50.140625 -26.96875 Z M 50.140625 -26.96875 "/></g></g></g><g fill="#c90908" fill-opacity="1"><g transform="translate(356.129189, 287.04893)"><g><path d="M 18.25 -57.5625 C 19.5625 -56.65625 21.101562 -55.53125 22.875 -54.1875 C 24.644531 -52.851562 26.472656 -51.425781 28.359375 -49.90625 C 30.253906 -48.394531 32.019531 -46.921875 33.65625 -45.484375 C 35.300781 -44.046875 36.679688 -42.75 37.796875 -41.59375 L 30.078125 -33.640625 C 29.117188 -34.691406 27.851562 -35.953125 26.28125 -37.421875 C 24.71875 -38.890625 23.023438 -40.40625 21.203125 -41.96875 C 19.390625 -43.53125 17.597656 -45.019531 15.828125 -46.4375 C 14.066406 -47.851562 12.503906 -49.039062 11.140625 -50 Z M 8.78125 -7.125 C 14.695312 -7.976562 20.085938 -9.300781 24.953125 -11.09375 C 29.828125 -12.882812 34.109375 -14.867188 37.796875 -17.046875 C 42.085938 -19.617188 46.023438 -22.53125 49.609375 -25.78125 C 53.203125 -29.039062 56.335938 -32.460938 59.015625 -36.046875 C 61.691406 -39.640625 63.8125 -43.128906 65.375 -46.515625 L 71.28125 -35.828125 C 68.40625 -30.722656 64.539062 -25.695312 59.6875 -20.75 C 54.84375 -15.800781 49.363281 -11.484375 43.25 -7.796875 C 39.414062 -5.472656 35.109375 -3.335938 30.328125 -1.390625 C 25.554688 0.546875 20.5 1.96875 15.15625 2.875 Z M 8.78125 -7.125 "/></g></g></g><g fill="#c90908" fill-opacity="1"><g transform="translate(431.880547, 287.04893)"><g><path d="M 30.984375 1.0625 C 25.878906 1.0625 21.296875 -0.046875 17.234375 -2.265625 C 13.171875 -4.492188 9.960938 -7.753906 7.609375 -12.046875 C 5.265625 -16.335938 4.09375 -21.585938 4.09375 -27.796875 C 4.09375 -33.960938 5.289062 -39.226562 7.6875 -43.59375 C 10.082031 -47.957031 13.328125 -51.300781 17.421875 -53.625 C 21.515625 -55.945312 26.035156 -57.109375 30.984375 -57.109375 C 35.023438 -57.109375 38.472656 -56.375 41.328125 -54.90625 C 44.179688 -53.445312 46.515625 -51.785156 48.328125 -49.921875 L 42.34375 -42.796875 C 40.976562 -44.109375 39.4375 -45.21875 37.71875 -46.125 C 36 -47.039062 33.878906 -47.5 31.359375 -47.5 C 28.273438 -47.5 25.535156 -46.726562 23.140625 -45.1875 C 20.742188 -43.644531 18.875 -41.429688 17.53125 -38.546875 C 16.195312 -35.671875 15.53125 -32.210938 15.53125 -28.171875 C 15.53125 -22.066406 16.914062 -17.285156 19.6875 -13.828125 C 22.46875 -10.367188 26.613281 -8.640625 32.125 -8.640625 C 33.476562 -8.640625 34.785156 -8.828125 36.046875 -9.203125 C 37.316406 -9.578125 38.351562 -10.09375 39.15625 -10.75 L 39.15625 -21.8125 L 29.234375 -21.8125 L 29.234375 -30.984375 L 49.15625 -30.984375 L 49.15625 -5.6875 C 47.289062 -3.8125 44.765625 -2.21875 41.578125 -0.90625 C 38.398438 0.40625 34.867188 1.0625 30.984375 1.0625 Z M 30.984375 1.0625 "/></g></g></g><g fill="#c90908" fill-opacity="1"><g transform="translate(486.194287, 287.04893)"><g><path d="M 6.890625 0 L 6.890625 -56.0625 L 41.28125 -56.0625 L 41.28125 -46.734375 L 18.109375 -46.734375 L 18.109375 -33.78125 L 37.796875 -33.78125 L 37.796875 -24.390625 L 18.109375 -24.390625 L 18.109375 -9.390625 L 42.109375 -9.390625 L 42.109375 0 Z M 6.890625 0 "/></g></g></g><g fill="#c90908" fill-opacity="1"><g transform="translate(532.781385, 287.04893)"><g><path d="M 18.03125 0 L 18.03125 -46.734375 L 2.265625 -46.734375 L 2.265625 -56.0625 L 45.140625 -56.0625 L 45.140625 -46.734375 L 29.234375 -46.734375 L 29.234375 0 Z M 18.03125 0 "/></g></g></g></svg>