<svg xmlns="http://www.w3.org/2000/svg" xmlns:xlink="http://www.w3.org/1999/xlink" width="1366" zoomAndPan="magnify" viewBox="0 0 1024.5 576" height="768" preserveAspectRatio="xMidYMid meet" version="1.0"><defs><g/><clipPath id="85e8c62af2"><path d="M 400 51.582031 L 416 51.582031 L 416 117 L 400 117 Z M 400 51.582031 " clip-rule="nonzero"/></clipPath></defs><path fill="#c90908" d="M 285.4375 168.25 C 288.773438 174.796875 285.742188 177.042969 283.035156 179.496094 C 240.230469 218.03125 194.214844 293.839844 245.484375 343.242188 C 323.972656 423.296875 510.765625 309.683594 549.683594 442.984375 C 562.164062 418.472656 576.921875 389.511719 608.332031 389.03125 C 680.984375 380.742188 797.652344 400.933594 832.804688 319.339844 C 835.304688 305.96875 850.417969 314.511719 843.113281 324.820312 C 776.226562 461.429688 547.308594 319.71875 556.554688 482.882812 C 560.574219 495.671875 539.070312 496.453125 540.484375 483.488281 C 559.585938 277.542969 191.105469 489.429688 215.921875 270.644531 C 221.53125 244.035156 231.511719 219.398438 252.5625 200.621094 C 262.847656 188.820312 270.046875 175.175781 285.4375 168.25 Z M 285.4375 168.25 " fill-opacity="1" fill-rule="nonzero"/><g clip-path="url(#85e8c62af2)"><path fill="#c90908" d="M 407.71875 116.449219 C 397.105469 101.613281 406.53125 76.292969 401.070312 58.203125 C 400.4375 54.839844 401.449219 51.808594 405.46875 51.554688 C 413.351562 52.492188 410.574219 64.46875 412.570312 70.152344 C 414.210938 81.375 412.339844 92.769531 414.714844 104.039062 C 415.652344 108.613281 415.726562 114.652344 407.71875 116.449219 Z M 407.71875 116.449219 " fill-opacity="1" fill-rule="nonzero"/></g><path fill="#c90908" d="M 276.996094 99.769531 C 293.976562 112.632812 302.59375 132.773438 319.703125 145.457031 C 323.039062 147.78125 324.578125 151.523438 321.851562 154.730469 C 313.132812 163.121094 300.144531 136.589844 293.777344 131.40625 C 288.015625 124.28125 283.695312 116.019531 276.085938 110.359375 C 271.664062 107.097656 272.980469 103.5625 276.996094 99.769531 Z M 276.996094 99.769531 " fill-opacity="1" fill-rule="nonzero"/><path fill="#c90908" d="M 367.160156 122.839844 C 359.804688 132.34375 358.542969 132.722656 353.894531 125.925781 C 350.734375 121.300781 347.953125 116.246094 346.035156 111.015625 C 342.671875 101.84375 339.488281 92.667969 333.878906 84.53125 C 331.476562 81.046875 329.632812 77.230469 335.523438 72.832031 C 351.417969 86.328125 351.617188 109.75 367.160156 122.839844 Z M 367.160156 122.839844 " fill-opacity="1" fill-rule="nonzero"/><g fill="#c90908" fill-opacity="1"><g transform="translate(332.754356, 239.592339)"><g><path d="M 17.828125 -3.453125 C 19.242188 -3.453125 19.953125 -4.425781 19.953125 -6.375 C 19.953125 -7.457031 19.929688 -8.945312 19.890625 -10.84375 C 19.847656 -12.75 19.804688 -14.796875 19.765625 -16.984375 C 17.335938 -15.847656 15.328125 -14.5 13.734375 -12.9375 C 12.140625 -11.382812 11.34375 -9.921875 11.34375 -8.546875 C 11.34375 -7.660156 11.710938 -6.820312 12.453125 -6.03125 C 13.203125 -5.238281 14.09375 -4.609375 15.125 -4.140625 C 16.15625 -3.679688 17.054688 -3.453125 17.828125 -3.453125 Z M 24.140625 -25.109375 L 24.140625 -23.109375 C 26.398438 -23.835938 28.660156 -24.378906 30.921875 -24.734375 C 33.191406 -25.097656 35.316406 -25.28125 37.296875 -25.28125 C 40.203125 -25.28125 42.785156 -24.785156 45.046875 -23.796875 C 47.316406 -22.804688 49.097656 -21.410156 50.390625 -19.609375 C 51.679688 -17.816406 52.328125 -15.726562 52.328125 -13.34375 C 52.328125 -9.707031 51.222656 -6.734375 49.015625 -4.421875 C 46.816406 -2.117188 43.65625 -0.460938 39.53125 0.546875 C 38.195312 0.828125 36.894531 1.019531 35.625 1.125 C 34.351562 1.226562 33.191406 1.296875 32.140625 1.328125 L 30.4375 -3.453125 C 31.570312 -3.453125 32.742188 -3.460938 33.953125 -3.484375 C 35.171875 -3.503906 36.34375 -3.632812 37.46875 -3.875 C 39.25 -4.195312 40.894531 -4.742188 42.40625 -5.515625 C 43.925781 -6.285156 45.160156 -7.304688 46.109375 -8.578125 C 47.066406 -9.847656 47.546875 -11.414062 47.546875 -13.28125 C 47.546875 -14.976562 47.078125 -16.410156 46.140625 -17.578125 C 45.210938 -18.753906 43.96875 -19.632812 42.40625 -20.21875 C 40.851562 -20.8125 39.128906 -21.109375 37.234375 -21.109375 C 35.003906 -21.109375 32.804688 -20.90625 30.640625 -20.5 C 28.484375 -20.09375 26.335938 -19.503906 24.203125 -18.734375 C 24.273438 -16.191406 24.332031 -13.71875 24.375 -11.3125 C 24.414062 -8.90625 24.4375 -7.054688 24.4375 -5.765625 C 24.4375 -2.972656 23.953125 -1.050781 22.984375 0 C 22.015625 1.050781 20.722656 1.578125 19.109375 1.578125 C 17.929688 1.578125 16.625 1.3125 15.1875 0.78125 C 13.75 0.257812 12.375 -0.453125 11.0625 -1.359375 C 9.75 -2.273438 8.664062 -3.335938 7.8125 -4.546875 C 6.96875 -5.765625 6.546875 -7.039062 6.546875 -8.375 C 6.546875 -10.03125 7.160156 -11.664062 8.390625 -13.28125 C 9.628906 -14.894531 11.25 -16.421875 13.25 -17.859375 C 15.25 -19.296875 17.398438 -20.5 19.703125 -21.46875 L 19.703125 -24.859375 C 19.703125 -26.078125 19.703125 -27.363281 19.703125 -28.71875 C 19.703125 -30.070312 19.722656 -31.414062 19.765625 -32.75 C 18.148438 -32.625 16.675781 -32.5625 15.34375 -32.5625 C 13.96875 -32.5625 12.640625 -32.582031 11.359375 -32.625 C 10.085938 -32.664062 8.867188 -32.75 7.703125 -32.875 L 7.578125 -37.46875 C 9.234375 -37.269531 10.644531 -37.140625 11.8125 -37.078125 C 12.988281 -37.015625 14.125 -36.984375 15.21875 -36.984375 C 16.675781 -36.984375 18.210938 -37.046875 19.828125 -37.171875 C 19.867188 -38.742188 19.898438 -40.144531 19.921875 -41.375 C 19.941406 -42.613281 19.953125 -43.5 19.953125 -44.03125 C 19.953125 -44.632812 19.921875 -45.359375 19.859375 -46.203125 C 19.796875 -47.054688 19.707031 -47.742188 19.59375 -48.265625 L 24.859375 -48.265625 C 24.742188 -47.054688 24.644531 -45.679688 24.5625 -44.140625 C 24.519531 -43.421875 24.488281 -42.492188 24.46875 -41.359375 C 24.445312 -40.222656 24.414062 -38.988281 24.375 -37.65625 C 26.5625 -37.9375 28.734375 -38.28125 30.890625 -38.6875 C 33.054688 -39.09375 34.988281 -39.554688 36.6875 -40.078125 L 36.75 -35.296875 C 35.007812 -34.890625 33.035156 -34.503906 30.828125 -34.140625 C 28.628906 -33.773438 26.4375 -33.472656 24.25 -33.234375 C 24.21875 -31.816406 24.191406 -30.410156 24.171875 -29.015625 C 24.148438 -27.617188 24.140625 -26.316406 24.140625 -25.109375 Z M 41.421875 -37.96875 L 43.59375 -41.65625 C 45.007812 -40.925781 46.597656 -40.023438 48.359375 -38.953125 C 50.117188 -37.890625 51.804688 -36.8125 53.421875 -35.71875 C 55.035156 -34.625 56.332031 -33.675781 57.3125 -32.875 L 54.875 -28.984375 C 53.90625 -29.953125 52.601562 -30.992188 50.96875 -32.109375 C 49.332031 -33.222656 47.65625 -34.304688 45.9375 -35.359375 C 44.21875 -36.410156 42.710938 -37.28125 41.421875 -37.96875 Z M 41.421875 -37.96875 "/></g></g></g><g fill="#c90908" fill-opacity="1"><g transform="translate(393.399298, 239.592339)"><g><path d="M 49.171875 -40.5625 L 49.171875 -45.421875 L 29.234375 -45.421875 L 29.234375 -40.5625 Z M 49.171875 -32.375 L 49.171875 -37.296875 L 29.234375 -37.296875 L 29.234375 -32.375 Z M 53.671875 -48.8125 L 53.671875 -28.921875 L 24.859375 -28.921875 L 24.859375 -48.8125 Z M 15.34375 -50.515625 L 19.640625 -48.875 C 18.472656 -47.175781 17.070312 -45.445312 15.4375 -43.6875 C 13.800781 -41.925781 12.070312 -40.257812 10.25 -38.6875 C 8.425781 -37.113281 6.625 -35.71875 4.84375 -34.5 C 4.601562 -35.03125 4.25 -35.65625 3.78125 -36.375 C 3.320312 -37.101562 2.890625 -37.691406 2.484375 -38.140625 C 4.097656 -39.191406 5.722656 -40.40625 7.359375 -41.78125 C 9.003906 -43.15625 10.523438 -44.597656 11.921875 -46.109375 C 13.316406 -47.628906 14.457031 -49.097656 15.34375 -50.515625 Z M 16.4375 -37.296875 L 20.375 -35.71875 C 19.6875 -34.46875 18.914062 -33.210938 18.0625 -31.953125 C 17.21875 -30.703125 16.332031 -29.472656 15.40625 -28.265625 L 15.40625 4.609375 L 10.96875 4.609375 L 10.96875 -23.171875 C 8.625 -20.617188 6.257812 -18.429688 3.875 -16.609375 C 3.71875 -17.054688 3.382812 -17.753906 2.875 -18.703125 C 2.375 -19.648438 1.921875 -20.390625 1.515625 -20.921875 C 3.335938 -22.253906 5.164062 -23.800781 7 -25.5625 C 8.84375 -27.320312 10.582031 -29.203125 12.21875 -31.203125 C 13.851562 -33.203125 15.257812 -35.234375 16.4375 -37.296875 Z M 24.984375 -8.859375 L 28.203125 -10.921875 C 29.609375 -9.660156 31.050781 -8.234375 32.53125 -6.640625 C 34.007812 -5.046875 35.132812 -3.660156 35.90625 -2.484375 L 32.4375 -0.0625 C 31.957031 -0.875 31.300781 -1.789062 30.46875 -2.8125 C 29.644531 -3.84375 28.753906 -4.882812 27.796875 -5.9375 C 26.847656 -6.988281 25.910156 -7.960938 24.984375 -8.859375 Z M 57.609375 -15.828125 L 57.609375 -11.953125 L 48.578125 -11.953125 L 48.578125 -0.296875 C 48.578125 0.910156 48.414062 1.835938 48.09375 2.484375 C 47.769531 3.128906 47.160156 3.632812 46.265625 4 C 45.378906 4.320312 44.1875 4.523438 42.6875 4.609375 C 41.195312 4.691406 39.316406 4.734375 37.046875 4.734375 C 36.972656 4.085938 36.789062 3.390625 36.5 2.640625 C 36.21875 1.890625 35.914062 1.210938 35.59375 0.609375 C 37.289062 0.648438 38.828125 0.679688 40.203125 0.703125 C 41.578125 0.722656 42.46875 0.710938 42.875 0.671875 C 43.351562 0.628906 43.671875 0.535156 43.828125 0.390625 C 43.992188 0.253906 44.078125 -0.015625 44.078125 -0.421875 L 44.078125 -11.953125 L 19.765625 -11.953125 L 19.765625 -15.828125 L 44.078125 -15.828125 L 44.078125 -20.984375 L 21.15625 -20.984375 L 21.15625 -24.859375 L 56.515625 -24.859375 L 56.515625 -20.984375 L 48.578125 -20.984375 L 48.578125 -15.828125 Z M 57.609375 -15.828125 "/></g></g></g><g fill="#c90908" fill-opacity="1"><g transform="translate(454.04424, 239.592339)"><g><path d="M 10.859375 -45.90625 L 16.3125 -45.484375 C 16.144531 -44.953125 15.941406 -44.28125 15.703125 -43.46875 C 15.460938 -42.664062 15.28125 -41.984375 15.15625 -41.421875 C 14.875 -40.046875 14.5625 -38.394531 14.21875 -36.46875 C 13.875 -34.550781 13.550781 -32.519531 13.25 -30.375 C 12.945312 -28.238281 12.703125 -26.140625 12.515625 -24.078125 C 12.335938 -22.015625 12.25 -20.132812 12.25 -18.4375 C 12.25 -16.976562 12.285156 -15.601562 12.359375 -14.3125 C 12.441406 -13.019531 12.566406 -11.644531 12.734375 -10.1875 C 13.253906 -11.5625 13.816406 -13.046875 14.421875 -14.640625 C 15.035156 -16.242188 15.582031 -17.628906 16.0625 -18.796875 L 18.671875 -16.859375 C 18.191406 -15.441406 17.644531 -13.863281 17.03125 -12.125 C 16.425781 -10.382812 15.890625 -8.734375 15.421875 -7.171875 C 14.960938 -5.617188 14.632812 -4.359375 14.4375 -3.390625 C 14.226562 -2.460938 14.125 -1.578125 14.125 -0.734375 L 14.3125 1.390625 L 9.9375 1.703125 C 9.332031 -0.441406 8.816406 -3.179688 8.390625 -6.515625 C 7.972656 -9.847656 7.765625 -13.535156 7.765625 -17.578125 C 7.765625 -20.535156 7.9375 -23.5625 8.28125 -26.65625 C 8.625 -29.75 9.003906 -32.617188 9.421875 -35.265625 C 9.847656 -37.910156 10.1875 -40.039062 10.4375 -41.65625 C 10.507812 -42.34375 10.597656 -43.0625 10.703125 -43.8125 C 10.804688 -44.5625 10.859375 -45.257812 10.859375 -45.90625 Z M 25.65625 -16.796875 L 30.015625 -16.375 C 29.492188 -14.269531 29.234375 -12.429688 29.234375 -10.859375 C 29.234375 -9.960938 29.492188 -9.097656 30.015625 -8.265625 C 30.546875 -7.441406 31.535156 -6.765625 32.984375 -6.234375 C 34.441406 -5.710938 36.546875 -5.453125 39.296875 -5.453125 C 44.515625 -5.453125 49.46875 -5.976562 54.15625 -7.03125 L 54.21875 -1.9375 C 52.351562 -1.570312 50.164062 -1.28125 47.65625 -1.0625 C 45.15625 -0.84375 42.347656 -0.734375 39.234375 -0.734375 C 34.222656 -0.734375 30.546875 -1.519531 28.203125 -3.09375 C 25.859375 -4.664062 24.6875 -6.867188 24.6875 -9.703125 C 24.6875 -10.796875 24.773438 -11.9375 24.953125 -13.125 C 25.128906 -14.320312 25.363281 -15.546875 25.65625 -16.796875 Z M 27.71875 -35.90625 L 27.65625 -40.875 C 29.3125 -40.59375 31.226562 -40.398438 33.40625 -40.296875 C 35.59375 -40.191406 37.859375 -40.140625 40.203125 -40.140625 C 42.546875 -40.140625 44.78125 -40.207031 46.90625 -40.34375 C 49.03125 -40.488281 50.835938 -40.664062 52.328125 -40.875 L 52.328125 -35.90625 C 50.710938 -35.738281 48.84375 -35.613281 46.71875 -35.53125 C 44.601562 -35.457031 42.390625 -35.421875 40.078125 -35.421875 C 37.773438 -35.421875 35.550781 -35.457031 33.40625 -35.53125 C 31.269531 -35.613281 29.375 -35.738281 27.71875 -35.90625 Z M 27.71875 -35.90625 "/></g></g></g><g fill="#c90908" fill-opacity="1"><g transform="translate(514.689182, 239.592339)"><g><path d="M 47.234375 -48.640625 C 47.765625 -47.953125 48.332031 -47.109375 48.9375 -46.109375 C 49.539062 -45.117188 50.132812 -44.109375 50.71875 -43.078125 C 51.3125 -42.046875 51.8125 -41.128906 52.21875 -40.328125 L 48.9375 -38.8125 C 48.332031 -40.0625 47.5625 -41.503906 46.625 -43.140625 C 45.695312 -44.785156 44.8125 -46.171875 43.96875 -47.296875 Z M 53.90625 -51.125 C 54.476562 -50.394531 55.078125 -49.523438 55.703125 -48.515625 C 56.328125 -47.503906 56.941406 -46.492188 57.546875 -45.484375 C 58.148438 -44.472656 58.65625 -43.582031 59.0625 -42.8125 L 55.734375 -41.359375 C 55.085938 -42.648438 54.304688 -44.082031 53.390625 -45.65625 C 52.484375 -47.238281 51.585938 -48.59375 50.703125 -49.71875 Z M 13.28125 -36.875 L 13.28125 -41.84375 C 15.46875 -41.5625 17.914062 -41.359375 20.625 -41.234375 C 23.332031 -41.109375 26.179688 -41.046875 29.171875 -41.046875 C 32.035156 -41.046875 34.910156 -41.132812 37.796875 -41.3125 C 40.691406 -41.5 43.210938 -41.695312 45.359375 -41.90625 L 45.359375 -36.9375 C 44.023438 -36.851562 42.445312 -36.75 40.625 -36.625 C 38.8125 -36.5 36.910156 -36.394531 34.921875 -36.3125 C 32.941406 -36.238281 31.023438 -36.203125 29.171875 -36.203125 C 26.179688 -36.203125 23.378906 -36.257812 20.765625 -36.375 C 18.160156 -36.5 15.664062 -36.664062 13.28125 -36.875 Z M 10.859375 -18.078125 L 15.765625 -17.578125 C 15.398438 -16.410156 15.101562 -15.269531 14.875 -14.15625 C 14.65625 -13.039062 14.546875 -11.921875 14.546875 -10.796875 C 14.546875 -8.523438 15.71875 -6.671875 18.0625 -5.234375 C 20.414062 -3.804688 23.976562 -3.09375 28.75 -3.09375 C 32.90625 -3.09375 36.800781 -3.300781 40.4375 -3.71875 C 44.082031 -4.144531 47.035156 -4.703125 49.296875 -5.390625 L 49.359375 -0.25 C 47.210938 0.363281 44.332031 0.867188 40.71875 1.265625 C 37.101562 1.671875 33.148438 1.875 28.859375 1.875 C 22.753906 1.875 18.015625 0.882812 14.640625 -1.09375 C 11.265625 -3.070312 9.578125 -5.941406 9.578125 -9.703125 C 9.578125 -11.273438 9.71875 -12.757812 10 -14.15625 C 10.289062 -15.550781 10.578125 -16.859375 10.859375 -18.078125 Z M 10.859375 -18.078125 "/></g></g></g><g fill="#c90908" fill-opacity="1"><g transform="translate(575.334125, 239.592339)"><g><path d="M 18.1875 -36.984375 L 18.1875 -44.6875 L 9.15625 -44.6875 L 9.15625 -36.984375 Z M 18.1875 -25.71875 L 18.1875 -33.46875 L 9.15625 -33.46875 L 9.15625 -25.71875 Z M 18.1875 -14.25 L 18.1875 -22.140625 L 9.15625 -22.140625 L 9.15625 -14.25 Z M 22.25 -48.453125 L 22.25 -10.546875 L 5.21875 -10.546875 L 5.21875 -48.453125 Z M 8.1875 -9.28125 L 12.25 -8.375 C 11.5625 -5.90625 10.609375 -3.515625 9.390625 -1.203125 C 8.179688 1.097656 6.890625 3.054688 5.515625 4.671875 C 5.148438 4.347656 4.613281 3.929688 3.90625 3.421875 C 3.195312 2.921875 2.601562 2.53125 2.125 2.25 C 3.539062 0.832031 4.765625 -0.894531 5.796875 -2.9375 C 6.828125 -4.976562 7.625 -7.09375 8.1875 -9.28125 Z M 15.765625 -7.828125 L 19.15625 -9.34375 C 20.164062 -7.882812 21.132812 -6.285156 22.0625 -4.546875 C 23 -2.804688 23.710938 -1.289062 24.203125 0 L 20.625 1.703125 C 20.21875 0.398438 19.535156 -1.144531 18.578125 -2.9375 C 17.628906 -4.738281 16.691406 -6.367188 15.765625 -7.828125 Z M 42.515625 -8.796875 L 50.265625 -8.796875 L 50.265625 -13.34375 L 42.515625 -13.34375 Z M 31.109375 -13.34375 L 31.109375 -8.796875 L 38.5 -8.796875 L 38.5 -13.34375 Z M 38.5 -20.796875 L 31.109375 -20.796875 L 31.109375 -16.5 L 38.5 -16.5 Z M 50.265625 -20.796875 L 42.515625 -20.796875 L 42.515625 -16.5 L 50.265625 -16.5 Z M 36.078125 -35.109375 L 36.078125 -31.109375 L 45.0625 -31.109375 L 45.0625 -35.109375 Z M 36.078125 -42.078125 L 36.078125 -38.453125 L 45.0625 -38.453125 L 45.0625 -42.078125 Z M 58.03125 -8.796875 L 58.03125 -5.34375 L 54.390625 -5.34375 L 54.390625 -0.0625 C 54.390625 1.03125 54.25 1.890625 53.96875 2.515625 C 53.6875 3.140625 53.160156 3.613281 52.390625 3.9375 C 51.546875 4.21875 50.414062 4.390625 49 4.453125 C 47.582031 4.515625 45.78125 4.546875 43.59375 4.546875 C 43.519531 4.023438 43.359375 3.421875 43.109375 2.734375 C 42.867188 2.046875 42.609375 1.4375 42.328125 0.90625 C 43.898438 0.945312 45.34375 0.96875 46.65625 0.96875 C 47.976562 0.96875 48.835938 0.96875 49.234375 0.96875 C 49.597656 0.925781 49.859375 0.84375 50.015625 0.71875 C 50.179688 0.601562 50.265625 0.34375 50.265625 -0.0625 L 50.265625 -5.34375 L 31.109375 -5.34375 L 31.109375 4.671875 L 27.046875 4.671875 L 27.046875 -5.34375 L 23.109375 -5.34375 L 23.109375 -8.796875 L 27.046875 -8.796875 L 27.046875 -24.203125 L 38.5 -24.203125 L 38.5 -27.71875 L 23.34375 -27.71875 L 23.34375 -31.109375 L 32.078125 -31.109375 L 32.078125 -35.109375 L 26.3125 -35.109375 L 26.3125 -38.453125 L 32.078125 -38.453125 L 32.078125 -42.078125 L 24.734375 -42.078125 L 24.734375 -45.484375 L 32.078125 -45.484375 L 32.078125 -50.703125 L 36.078125 -50.703125 L 36.078125 -45.484375 L 45.0625 -45.484375 L 45.0625 -50.703125 L 49.125 -50.703125 L 49.125 -45.484375 L 56.515625 -45.484375 L 56.515625 -42.078125 L 49.125 -42.078125 L 49.125 -38.453125 L 55.546875 -38.453125 L 55.546875 -35.109375 L 49.125 -35.109375 L 49.125 -31.109375 L 57.796875 -31.109375 L 57.796875 -27.71875 L 42.515625 -27.71875 L 42.515625 -24.203125 L 54.390625 -24.203125 L 54.390625 -8.796875 Z M 58.03125 -8.796875 "/></g></g></g><g fill="#c90908" fill-opacity="1"><g transform="translate(635.979067, 239.592339)"><g><path d="M 13.953125 -47.0625 L 33.234375 -47.0625 C 33.234375 -44.914062 33.351562 -42.347656 33.59375 -39.359375 C 33.832031 -36.367188 34.382812 -33.144531 35.25 -29.6875 C 36.125 -26.226562 37.460938 -22.707031 39.265625 -19.125 C 41.066406 -15.550781 43.507812 -12.066406 46.59375 -8.671875 C 49.6875 -5.273438 53.617188 -2.160156 58.390625 0.671875 C 57.867188 1.035156 57.234375 1.609375 56.484375 2.390625 C 55.734375 3.179688 55.160156 3.859375 54.765625 4.421875 C 49.785156 1.390625 45.6875 -2.015625 42.46875 -5.796875 C 39.257812 -9.578125 36.722656 -13.5 34.859375 -17.5625 C 33.003906 -21.625 31.613281 -25.550781 30.6875 -29.34375 C 28.457031 -21.5 25.375 -14.785156 21.4375 -9.203125 C 17.5 -3.628906 12.515625 0.929688 6.484375 4.484375 C 6.078125 4.046875 5.445312 3.441406 4.59375 2.671875 C 3.75 1.898438 3.023438 1.3125 2.421875 0.90625 C 9.128906 -2.570312 14.4375 -7.34375 18.34375 -13.40625 C 22.25 -19.46875 25.128906 -26.742188 26.984375 -35.234375 L 29.65625 -34.8125 C 29.445312 -36.226562 29.28125 -37.59375 29.15625 -38.90625 C 29.039062 -40.21875 28.941406 -41.4375 28.859375 -42.5625 L 13.953125 -42.5625 Z M 13.953125 -47.0625 "/></g></g></g><g fill="#c90908" fill-opacity="1"><g transform="translate(696.624009, 239.592339)"><g><path d="M 28.3125 -14.671875 L 26.859375 -38.203125 L 26.6875 -45.359375 L 33.953125 -45.359375 L 33.84375 -38.203125 L 32.328125 -14.671875 Z M 30.3125 0.296875 C 28.976562 0.296875 27.835938 -0.125 26.890625 -0.96875 C 25.941406 -1.820312 25.46875 -2.992188 25.46875 -4.484375 C 25.46875 -5.898438 25.941406 -7.039062 26.890625 -7.90625 C 27.835938 -8.78125 28.976562 -9.21875 30.3125 -9.21875 C 31.65625 -9.21875 32.800781 -8.78125 33.75 -7.90625 C 34.695312 -7.039062 35.171875 -5.898438 35.171875 -4.484375 C 35.171875 -2.992188 34.695312 -1.820312 33.75 -0.96875 C 32.800781 -0.125 31.65625 0.296875 30.3125 0.296875 Z M 30.3125 0.296875 "/></g></g></g><g fill="#c90908" fill-opacity="1"><g transform="translate(319.249519, 338.811883)"><g><path d="M 60.421875 -51.9375 L 68.15625 -47.15625 C 67.75 -46.445312 67.304688 -45.597656 66.828125 -44.609375 C 66.347656 -43.628906 65.957031 -42.660156 65.65625 -41.703125 C 65 -39.472656 64.0625 -36.929688 62.84375 -34.078125 C 61.632812 -31.222656 60.171875 -28.265625 58.453125 -25.203125 C 56.734375 -22.148438 54.738281 -19.207031 52.46875 -16.375 C 48.875 -11.976562 44.648438 -8.019531 39.796875 -4.5 C 34.953125 -0.988281 28.960938 2.175781 21.828125 5 L 12.890625 -3.03125 C 18.097656 -4.59375 22.570312 -6.347656 26.3125 -8.296875 C 30.050781 -10.242188 33.296875 -12.351562 36.046875 -14.625 C 38.804688 -16.90625 41.269531 -19.285156 43.4375 -21.765625 C 45.15625 -23.734375 46.757812 -25.96875 48.25 -28.46875 C 49.738281 -30.96875 51 -33.457031 52.03125 -35.9375 C 53.070312 -38.414062 53.796875 -40.585938 54.203125 -42.453125 L 32.90625 -42.453125 C 30.375 -39.171875 27.488281 -35.925781 24.25 -32.71875 C 21.019531 -29.507812 17.535156 -26.640625 13.796875 -24.109375 L 5.3125 -30.40625 C 9.757812 -33.132812 13.5 -35.960938 16.53125 -38.890625 C 19.5625 -41.816406 22.070312 -44.65625 24.0625 -47.40625 C 26.0625 -50.164062 27.691406 -52.632812 28.953125 -54.8125 C 29.515625 -55.769531 30.132812 -57.019531 30.8125 -58.5625 C 31.5 -60.101562 32.019531 -61.503906 32.375 -62.765625 L 43.4375 -59.140625 C 42.53125 -57.816406 41.644531 -56.410156 40.78125 -54.921875 C 39.925781 -53.429688 39.269531 -52.257812 38.8125 -51.40625 L 38.59375 -51.015625 L 53.828125 -51.015625 C 54.992188 -51.015625 56.171875 -51.101562 57.359375 -51.28125 C 58.546875 -51.457031 59.566406 -51.675781 60.421875 -51.9375 Z M 60.421875 -51.9375 "/></g></g></g><g fill="#c90908" fill-opacity="1"><g transform="translate(395.048905, 338.811883)"><g><path d="M 6.96875 -23.203125 L 6.96875 -35.09375 C 7.882812 -35.050781 9.046875 -34.988281 10.453125 -34.90625 C 11.867188 -34.832031 13.347656 -34.769531 14.890625 -34.71875 C 16.429688 -34.664062 17.863281 -34.640625 19.1875 -34.640625 L 59.890625 -34.640625 C 61.660156 -34.640625 63.34375 -34.703125 64.9375 -34.828125 C 66.53125 -34.960938 67.804688 -35.050781 68.765625 -35.09375 L 68.765625 -23.203125 C 67.847656 -23.253906 66.539062 -23.328125 64.84375 -23.421875 C 63.15625 -23.523438 61.503906 -23.578125 59.890625 -23.578125 L 19.1875 -23.578125 C 17.007812 -23.578125 14.78125 -23.535156 12.5 -23.453125 C 10.226562 -23.378906 8.382812 -23.296875 6.96875 -23.203125 Z M 6.96875 -23.203125 "/></g></g></g><g fill="#c90908" fill-opacity="1"><g transform="translate(470.84829, 338.811883)"><g><path d="M 62.921875 -60.953125 C 61.765625 -60.953125 60.78125 -60.5625 59.96875 -59.78125 C 59.15625 -59 58.75 -58.023438 58.75 -56.859375 C 58.75 -55.742188 59.15625 -54.769531 59.96875 -53.9375 C 60.78125 -53.101562 61.765625 -52.6875 62.921875 -52.6875 C 64.085938 -52.6875 65.0625 -53.101562 65.84375 -53.9375 C 66.625 -54.769531 67.015625 -55.742188 67.015625 -56.859375 C 67.015625 -58.023438 66.625 -59 65.84375 -59.78125 C 65.0625 -60.5625 64.085938 -60.953125 62.921875 -60.953125 Z M 62.921875 -48.0625 C 61.304688 -48.0625 59.828125 -48.453125 58.484375 -49.234375 C 57.148438 -50.023438 56.085938 -51.085938 55.296875 -52.421875 C 54.515625 -53.765625 54.125 -55.242188 54.125 -56.859375 C 54.125 -58.472656 54.515625 -59.9375 55.296875 -61.25 C 56.085938 -62.570312 57.148438 -63.625 58.484375 -64.40625 C 59.828125 -65.1875 61.304688 -65.578125 62.921875 -65.578125 C 65.347656 -65.578125 67.40625 -64.726562 69.09375 -63.03125 C 70.789062 -61.34375 71.640625 -59.285156 71.640625 -56.859375 C 71.640625 -55.242188 71.25 -53.765625 70.46875 -52.421875 C 69.6875 -51.085938 68.632812 -50.023438 67.3125 -49.234375 C 66 -48.453125 64.535156 -48.0625 62.921875 -48.0625 Z M 17.28125 -31.234375 L 25.859375 -27.21875 C 24.992188 -25.550781 23.941406 -23.71875 22.703125 -21.71875 C 21.460938 -19.71875 20.160156 -17.734375 18.796875 -15.765625 C 17.429688 -13.796875 16.09375 -11.960938 14.78125 -10.265625 C 13.46875 -8.578125 12.28125 -7.175781 11.21875 -6.0625 L 3.03125 -11.671875 C 4.75 -13.285156 6.503906 -15.21875 8.296875 -17.46875 C 10.097656 -19.71875 11.789062 -22.039062 13.375 -24.4375 C 14.96875 -26.84375 16.269531 -29.109375 17.28125 -31.234375 Z M 60.71875 -37.984375 L 42.984375 -37.984375 L 42.984375 -2.734375 C 42.984375 -0.554688 42.335938 1.171875 41.046875 2.453125 C 39.765625 3.742188 37.78125 4.390625 35.09375 4.390625 C 33.070312 4.390625 30.988281 4.328125 28.84375 4.203125 C 26.695312 4.078125 24.664062 3.914062 22.75 3.71875 L 21.828125 -5.6875 C 23.453125 -5.382812 25.035156 -5.15625 26.578125 -5 C 28.117188 -4.851562 29.34375 -4.78125 30.25 -4.78125 C 31.257812 -4.78125 31.96875 -4.992188 32.375 -5.421875 C 32.78125 -5.847656 33.003906 -6.539062 33.046875 -7.5 C 33.046875 -7.957031 33.054688 -8.929688 33.078125 -10.421875 C 33.109375 -11.910156 33.125 -13.703125 33.125 -15.796875 C 33.125 -17.898438 33.125 -20.101562 33.125 -22.40625 C 33.125 -24.707031 33.125 -26.929688 33.125 -29.078125 C 33.125 -31.222656 33.125 -33.078125 33.125 -34.640625 C 33.125 -36.210938 33.125 -37.300781 33.125 -37.90625 L 33.125 -37.984375 L 13.875 -37.984375 C 12.757812 -37.984375 11.519531 -37.957031 10.15625 -37.90625 C 8.789062 -37.851562 7.578125 -37.773438 6.515625 -37.671875 L 6.515625 -47.765625 C 7.679688 -47.609375 8.90625 -47.46875 10.1875 -47.34375 C 11.476562 -47.21875 12.707031 -47.15625 13.875 -47.15625 L 33.125 -47.15625 L 33.125 -53.21875 C 33.125 -54.226562 33.046875 -55.414062 32.890625 -56.78125 C 32.742188 -58.144531 32.597656 -59.15625 32.453125 -59.8125 L 43.671875 -59.8125 C 43.617188 -59.457031 43.539062 -58.875 43.4375 -58.0625 C 43.332031 -57.257812 43.226562 -56.414062 43.125 -55.53125 C 43.03125 -54.644531 42.984375 -53.875 42.984375 -53.21875 L 42.984375 -47.15625 L 60.65625 -47.15625 C 61.707031 -47.15625 62.96875 -47.203125 64.4375 -47.296875 C 65.90625 -47.398438 67.117188 -47.53125 68.078125 -47.6875 L 68.078125 -37.75 C 66.921875 -37.851562 65.65625 -37.914062 64.28125 -37.9375 C 62.914062 -37.96875 61.726562 -37.984375 60.71875 -37.984375 Z M 50.1875 -26.984375 L 58.453125 -31.46875 C 59.410156 -30.25 60.484375 -28.789062 61.671875 -27.09375 C 62.859375 -25.40625 64.054688 -23.625 65.265625 -21.75 C 66.484375 -19.882812 67.625 -18.054688 68.6875 -16.265625 C 69.75 -14.472656 70.660156 -12.894531 71.421875 -11.53125 L 62.46875 -6.671875 C 61.40625 -8.847656 60.140625 -11.210938 58.671875 -13.765625 C 57.210938 -16.316406 55.734375 -18.78125 54.234375 -21.15625 C 52.742188 -23.53125 51.394531 -25.472656 50.1875 -26.984375 Z M 50.1875 -26.984375 "/></g></g></g><g fill="#c90908" fill-opacity="1"><g transform="translate(546.647676, 338.811883)"><g><path d="M 18.265625 -57.625 C 19.578125 -56.707031 21.117188 -55.578125 22.890625 -54.234375 C 24.660156 -52.898438 26.492188 -51.472656 28.390625 -49.953125 C 30.285156 -48.441406 32.050781 -46.960938 33.6875 -45.515625 C 35.332031 -44.078125 36.710938 -42.78125 37.828125 -41.625 L 30.09375 -33.65625 C 29.132812 -34.71875 27.867188 -35.984375 26.296875 -37.453125 C 24.734375 -38.921875 23.039062 -40.4375 21.21875 -42 C 19.40625 -43.5625 17.613281 -45.050781 15.84375 -46.46875 C 14.070312 -47.882812 12.503906 -49.070312 11.140625 -50.03125 Z M 8.796875 -7.125 C 14.710938 -7.988281 20.109375 -9.316406 24.984375 -11.109375 C 29.859375 -12.898438 34.140625 -14.882812 37.828125 -17.0625 C 42.128906 -19.632812 46.070312 -22.550781 49.65625 -25.8125 C 53.25 -29.070312 56.382812 -32.492188 59.0625 -36.078125 C 61.738281 -39.671875 63.859375 -43.160156 65.421875 -46.546875 L 71.34375 -35.859375 C 68.457031 -30.753906 64.585938 -25.722656 59.734375 -20.765625 C 54.890625 -15.816406 49.40625 -11.5 43.28125 -7.8125 C 39.445312 -5.488281 35.140625 -3.351562 30.359375 -1.40625 C 25.585938 0.539062 20.519531 1.96875 15.15625 2.875 Z M 8.796875 -7.125 "/></g></g></g><g fill="#c90908" fill-opacity="1"><g transform="translate(622.447061, 338.811883)"><g><path d="M 31 1.0625 C 25.894531 1.0625 21.304688 -0.046875 17.234375 -2.265625 C 13.171875 -4.492188 9.960938 -7.753906 7.609375 -12.046875 C 5.265625 -16.347656 4.09375 -21.609375 4.09375 -27.828125 C 4.09375 -33.992188 5.289062 -39.257812 7.6875 -43.625 C 10.09375 -48 13.34375 -51.347656 17.4375 -53.671875 C 21.53125 -55.992188 26.050781 -57.15625 31 -57.15625 C 35.050781 -57.15625 38.503906 -56.421875 41.359375 -54.953125 C 44.210938 -53.492188 46.550781 -51.828125 48.375 -49.953125 L 42.375 -42.828125 C 41.007812 -44.148438 39.46875 -45.265625 37.75 -46.171875 C 36.03125 -47.078125 33.910156 -47.53125 31.390625 -47.53125 C 28.304688 -47.53125 25.5625 -46.757812 23.15625 -45.21875 C 20.757812 -43.675781 18.890625 -41.460938 17.546875 -38.578125 C 16.210938 -35.703125 15.546875 -32.242188 15.546875 -28.203125 C 15.546875 -22.085938 16.929688 -17.296875 19.703125 -13.828125 C 22.484375 -10.367188 26.628906 -8.640625 32.140625 -8.640625 C 33.503906 -8.640625 34.816406 -8.828125 36.078125 -9.203125 C 37.347656 -9.585938 38.382812 -10.109375 39.1875 -10.765625 L 39.1875 -21.828125 L 29.265625 -21.828125 L 29.265625 -31 L 49.203125 -31 L 49.203125 -5.6875 C 47.328125 -3.8125 44.796875 -2.21875 41.609375 -0.90625 C 38.429688 0.40625 34.894531 1.0625 31 1.0625 Z M 31 1.0625 "/></g></g></g><g fill="#c90908" fill-opacity="1"><g transform="translate(676.795237, 338.811883)"><g><path d="M 6.90625 0 L 6.90625 -56.09375 L 41.3125 -56.09375 L 41.3125 -46.78125 L 18.125 -46.78125 L 18.125 -33.8125 L 37.828125 -33.8125 L 37.828125 -24.40625 L 18.125 -24.40625 L 18.125 -9.40625 L 42.15625 -9.40625 L 42.15625 0 Z M 6.90625 0 "/></g></g></g><g fill="#c90908" fill-opacity="1"><g transform="translate(723.411873, 338.811883)"><g><path d="M 18.046875 0 L 18.046875 -46.78125 L 2.28125 -46.78125 L 2.28125 -56.09375 L 45.1875 -56.09375 L 45.1875 -46.78125 L 29.265625 -46.78125 L 29.265625 0 Z M 18.046875 0 "/></g></g></g></svg>